{
    "accessors" : [
        {
            "bufferView" : 0,
            "componentType" : 5126,
            "count" : 1384,
            "max" : [
                2.062227725982666,
                0.8249673247337341,
                0.5073408484458923
            ],
            "min" : [
                -2.0966432094573975,
                -1.3199796676635742,
                -0.5073408484458923
            ],
            "type" : "VEC3"
        },
        {
            "bufferView" : 1,
            "componentType" : 5126,
            "count" : 1384,
            "type" : "VEC3"
        },
        {
            "bufferView" : 2,
            "componentType" : 5126,
            "count" : 1384,
            "type" : "VEC2"
        },
        {
            "bufferView" : 3,
            "componentType" : 5123,
            "count" : 4416,
            "type" : "SCALAR"
        }
    ],
    "asset" : {
        "generator" : "Khronos Blender glTF 2.0 I/O",
        "version" : "2.0"
    },
    "bufferViews" : [
        {
            "buffer" : 0,
            "byteLength" : 16608,
            "byteOffset" : 0
        },
        {
            "buffer" : 0,
            "byteLength" : 16608,
            "byteOffset" : 16608
        },
        {
            "buffer" : 0,
            "byteLength" : 11072,
            "byteOffset" : 33216
        },
        {
            "buffer" : 0,
            "byteLength" : 8832,
            "byteOffset" : 44288
        }
    ],
    "buffers" : [
        {
            "byteLength" : 53120,
            "uri" : "diplo.bin"
        }
    ],
    "extensions" : {},
    "materials" : [
        {
            "name" : "Material",
            "pbrMetallicRoughness" : {
                "baseColorFactor" : [
                    0.83422007858753204,
                    0.830083326622843742,
                    0.8248476028442383,
                    1
                ],
                "metallicFactor" : 0,
                "roughnessFactor" : 0
            }
        }
    ],
    "meshes" : [
        {
            "name" : "Cube.001",
            "primitives" : [
                {
                    "attributes" : {
                        "NORMAL" : 1,
                        "POSITION" : 0,
                        "TEXCOORD_0" : 2
                    },
                    "indices" : 3,
                    "material" : 0
                }
            ]
        }
    ],
    "nodes" : [
        {
            "mesh" : 0,
            "name" : "Cube"
        }
    ],
    "scene" : 0,
    "scenes" : [
        {
            "name" : "Scene",
            "nodes" : [
                0
            ]
        }
    ]
}
