{
    "accessors" : [
        {
            "bufferView" : 0,
            "componentType" : 5126,
            "count" : 32,
            "max" : [
                1,
                2.1710939407348633,
                1
            ],
            "min" : [
                -1,
                -1,
                -1
            ],
            "type" : "VEC3"
        },
        {
            "bufferView" : 1,
            "componentType" : 5126,
            "count" : 32,
            "type" : "VEC3"
        },
        {
            "bufferView" : 2,
            "componentType" : 5126,
            "count" : 32,
            "type" : "VEC2"
        },
        {
            "bufferView" : 3,
            "componentType" : 5123,
            "count" : 42,
            "type" : "SCALAR"
        }
    ],
    "asset" : {
        "generator" : "Khronos Blender glTF 2.0 I/O",
        "version" : "2.0"
    },
    "bufferViews" : [
        {
            "buffer" : 0,
            "byteLength" : 384,
            "byteOffset" : 0
        },
        {
            "buffer" : 0,
            "byteLength" : 384,
            "byteOffset" : 384
        },
        {
            "buffer" : 0,
            "byteLength" : 256,
            "byteOffset" : 768
        },
        {
            "buffer" : 0,
            "byteLength" : 84,
            "byteOffset" : 1024
        }
    ],
    "buffers" : [
        {
            "byteLength" : 1108,
            "uri" : "maison.bin"
        }
    ],
    "extensions" : {},
    "images" : [
        {
            "mimeType" : "image/png",
            "name" : "diffuse.png",
            "uri" : "diffuse.png"
        }
    ],
    "materials" : [
        {
            "name" : "Material",
            "pbrMetallicRoughness" : {
                "baseColorTexture" : {
                    "index" : 0,
                    "texCoord" : 0
                },
                "metallicFactor" : 0,
                "roughnessFactor" : 0.5
            }
        }
    ],
    "meshes" : [
        {
            "name" : "Cube",
            "primitives" : [
                {
                    "attributes" : {
                        "NORMAL" : 1,
                        "POSITION" : 0,
                        "TEXCOORD_0" : 2
                    },
                    "indices" : 3,
                    "material" : 0
                }
            ]
        }
    ],
    "nodes" : [
        {
            "mesh" : 0,
            "name" : "Cube"
        }
    ],
    "scene" : 0,
    "scenes" : [
        {
            "name" : "Scene",
            "nodes" : [
                0
            ]
        }
    ],
    "textures" : [
        {
            "source" : 0
        }
    ]
}
